<?xml version="1.0" encoding="utf-8"?>
<!-- Generator: Adobe Illustrator 22.0.1, SVG Export Plug-In . SVG Version: 6.00 Build 0)  -->
<svg version="1.1" id="Capa_1" xmlns="http://www.w3.org/2000/svg" xmlns:xlink="http://www.w3.org/1999/xlink" x="0px" y="0px"
	 viewBox="0 0 250 250" style="enable-background:new 0 0 250 250;" xml:space="preserve">
<title>1logo bottom 2</title>
<g>
	<path d="M250,125c0,68.9-56.1,125-125,125S0,193.9,0,125c0-36.4,13.4-67.7,38.9-90.7l18,25.4C39.8,76.5,30.9,98.9,30.9,125
		c0,51.9,42.2,94.1,94.1,94.1s94.1-42.2,94.1-94.1c0-28.4-7.7-48.6-24.7-64.5l18-25.3C237.7,57.1,250,86.6,250,125z"/>
	<path d="M126,91c21.9,0,40.2-15.6,44.4-36.3c0.6-2.9,0.9-5.9,0.9-9c0-25-20.3-45.3-45.3-45.3S80.8,20.8,80.8,45.8
		c0,3.1,0.3,6.1,0.9,9C85.8,75.4,104.1,91,126,91z"/>
	<path d="M64,69.6c-13.4,14.8-21.6,34.5-21.6,56.1c0,44.5,33.7,80.9,77.5,83.5v-90.7L64,69.6z"/>
	<path d="M188,69.5l-55.8,48.8v90.9c43.8-2.6,77.5-39,77.5-83.5C209.7,104.1,201.5,84.3,188,69.5z"/>
</g>
</svg>
